<?xml version="1.0" encoding="iso-8859-1"?>
<!-- Uploaded to: SVG Repo, www.svgrepo.com, Generator: SVG Repo Mixer Tools -->
<!DOCTYPE svg PUBLIC "-//W3C//DTD SVG 1.1//EN" "http://www.w3.org/Graphics/SVG/1.1/DTD/svg11.dtd">
<svg fill="#000000" height="800px" width="800px" version="1.1" id="Capa_1" xmlns="http://www.w3.org/2000/svg" xmlns:xlink="http://www.w3.org/1999/xlink" 
	 viewBox="0 0 60 60" xml:space="preserve">
<path d="M57.347,0.793H12.653C11.19,0.793,10,1.983,10,3.446v9.347H2.653C1.19,12.793,0,13.983,0,15.446v43.761l9.414-9.414h34.933
	c1.463,0,2.653-1.19,2.653-2.653v-6.347h3.586L60,50.207V3.446C60,1.983,58.81,0.793,57.347,0.793z M45,47.14
	c0,0.36-0.293,0.653-0.653,0.653H8.586L2,54.379V15.446c0-0.36,0.293-0.653,0.653-0.653H10h34.347c0.36,0,0.653,0.293,0.653,0.653
	v25.347V47.14z M58,45.379l-6.586-6.586H47V15.446c0-1.463-1.19-2.653-2.653-2.653H12V3.446c0-0.36,0.293-0.653,0.653-0.653h44.694
	c0.36,0,0.653,0.293,0.653,0.653V45.379z"/>
</svg>